<svg viewBox="0 0 400 400" xmlns="http://www.w3.org/2000/svg">
  <defs>
    <linearGradient id="orangeGradient" x1="0%" y1="0%" x2="100%" y2="100%">
      <stop offset="0%" style="stop-color:#FFB67A;stop-opacity:1" />
      <stop offset="100%" style="stop-color:#FF8C3A;stop-opacity:1" />
    </linearGradient>
    <linearGradient id="lightGradient" x1="0%" y1="0%" x2="0%" y2="100%">
      <stop offset="0%" style="stop-color:#FFF5EB;stop-opacity:1" />
      <stop offset="100%" style="stop-color:#FFE8D1;stop-opacity:1" />
    </linearGradient>
  </defs>
  
  <path d="M 200 40 L 360 340 L 40 340 Z" fill="url(#lightGradient)" stroke="#FF9F5A" stroke-width="3"/>
  
  <g transform="translate(200, 160)">
    <path d="M -50 20 Q -50 -20, -30 -35 L 30 -35 Q 50 -20, 50 20 L 45 25 Q 45 30, 40 32 L -40 32 Q -45 30, -45 25 Z" 
          fill="url(#orangeGradient)" opacity="0.9"/>
    
    <circle cx="-25" cy="-10" r="12" fill="#FF9F5A"/>
    <circle cx="0" cy="-15" r="14" fill="#FFB67A"/>
    <circle cx="25" cy="-8" r="11" fill="#FF8C3A"/>
    
    <circle cx="-15" cy="5" r="4" fill="#FF8C3A" opacity="0.6"/>
    <circle cx="15" cy="8" r="4" fill="#FFB67A" opacity="0.6"/>
    
    <path d="M -30 -45 L -30 -60" stroke="#FF9F5A" stroke-width="3" stroke-linecap="round" opacity="0.5"/>
    <path d="M 0 -50 L 0 -68" stroke="#FF8C3A" stroke-width="3" stroke-linecap="round" opacity="0.5"/>
    <path d="M 30 -43 L 30 -58" stroke="#FFB67A" stroke-width="3" stroke-linecap="round" opacity="0.5"/>
  </g>
  
  <text x="200" y="270" font-family="'Helvetica Neue', Arial, sans-serif" font-size="48" font-weight="700" fill="#FF8C3A" text-anchor="middle" letter-spacing="1">
    Foodland
  </text>
  
  <rect x="145" y="278" width="110" height="3" rx="1.5" fill="#FF9F5A" opacity="0.7"/>
  
  <text x="200" y="300" font-family="'Helvetica Neue', Arial, sans-serif" font-size="12" font-weight="400" fill="#FF9F5A" text-anchor="middle" letter-spacing="4">
    ALL CUISINES
  </text>
  
  <circle cx="200" cy="70" r="4" fill="#FF9F5A" opacity="0.4"/>
  <circle cx="100" cy="310" r="4" fill="#FF8C3A" opacity="0.4"/>
  <circle cx="300" cy="310" r="4" fill="#FFB67A" opacity="0.4"/>
</svg>