<svg xmlns="http://www.w3.org/2000/svg" version="1.1" xmlns:xlink="http://www.w3.org/1999/xlink" width="1000" height="1000"><g clip-path="url(#SvgjsClipPath1527)"><rect width="1000" height="1000" fill="#000000"></rect><g transform="matrix(2.5,0,0,2.5,0,0)"><svg xmlns="http://www.w3.org/2000/svg" version="1.1" xmlns:xlink="http://www.w3.org/1999/xlink" width="400" height="400"><svg viewBox="0 0 400 400" xmlns="http://www.w3.org/2000/svg">
  <defs>
    <linearGradient id="orangeGradient" x1="0%" y1="0%" x2="100%" y2="100%">
      <stop offset="0%" style="stop-color:#FFB67A;stop-opacity:1"></stop>
      <stop offset="100%" style="stop-color:#FF8C3A;stop-opacity:1"></stop>
    </linearGradient>
    <linearGradient id="lightGradient" x1="0%" y1="0%" x2="0%" y2="100%">
      <stop offset="0%" style="stop-color:#FFF5EB;stop-opacity:1"></stop>
      <stop offset="100%" style="stop-color:#FFE8D1;stop-opacity:1"></stop>
    </linearGradient>
  <clipPath id="SvgjsClipPath1527"><rect width="1000" height="1000" x="0" y="0" rx="500" ry="500"></rect></clipPath></defs>
  
  <path d="M 200 40 L 360 340 L 40 340 Z" fill="url(#lightGradient)" stroke="#FF9F5A" stroke-width="3"></path>
  
  <g transform="translate(200, 160)">
    <path d="M -50 20 Q -50 -20, -30 -35 L 30 -35 Q 50 -20, 50 20 L 45 25 Q 45 30, 40 32 L -40 32 Q -45 30, -45 25 Z" fill="url(#orangeGradient)" opacity="0.9"></path>
    
    <circle cx="-25" cy="-10" r="12" fill="#FF9F5A"></circle>
    <circle cx="0" cy="-15" r="14" fill="#FFB67A"></circle>
    <circle cx="25" cy="-8" r="11" fill="#FF8C3A"></circle>
    
    <circle cx="-15" cy="5" r="4" fill="#FF8C3A" opacity="0.6"></circle>
    <circle cx="15" cy="8" r="4" fill="#FFB67A" opacity="0.6"></circle>
    
    <path d="M -30 -45 L -30 -60" stroke="#FF9F5A" stroke-width="3" stroke-linecap="round" opacity="0.5"></path>
    <path d="M 0 -50 L 0 -68" stroke="#FF8C3A" stroke-width="3" stroke-linecap="round" opacity="0.5"></path>
    <path d="M 30 -43 L 30 -58" stroke="#FFB67A" stroke-width="3" stroke-linecap="round" opacity="0.5"></path>
  </g>
  
  <text x="200" y="270" font-family="'Helvetica Neue', Arial, sans-serif" font-size="48" font-weight="700" fill="#FF8C3A" text-anchor="middle" letter-spacing="1">
    Foodland
  </text>
  
  <rect x="145" y="278" width="110" height="3" rx="1.5" fill="#FF9F5A" opacity="0.7"></rect>
  
  <text x="200" y="300" font-family="'Helvetica Neue', Arial, sans-serif" font-size="12" font-weight="400" fill="#FF9F5A" text-anchor="middle" letter-spacing="4">
    ALL CUISINES
  </text>
  
  <circle cx="200" cy="70" r="4" fill="#FF9F5A" opacity="0.4"></circle>
  <circle cx="100" cy="310" r="4" fill="#FF8C3A" opacity="0.4"></circle>
  <circle cx="300" cy="310" r="4" fill="#FFB67A" opacity="0.4"></circle>
</svg></svg></g></g></svg>